<?xml version="1.0" encoding="UTF-8"?>
<svg id="Layer_1" data-name="Layer 1" xmlns="http://www.w3.org/2000/svg" viewBox="0 0 1669.95 1068.51">
  <g>
    <path d="M753.98,276.74l-4.98-1.47-1.51,2.96-3.49-1.98-2.5,3.03c-4.75-3.39-10.21.15-16.03.03-2.95-.06-15.84-3.11-17.33-1.84-.48.41.27,1.91-.66,1.78l-4.01-4.07-6.99,5.04.5-4.96c-2.03-.98-6.4,3.38-6.98,2.99-.28-.19-.28-3.45-2.51-2.99l-1.52,4.99-9.93-2.96-.58,3.02c-5.27-1.09-8.79-.18-13.85,1.01l-1.61-2.06-.02,3.99-5.99-1.99v3.98c-2.77,0-4.69,1.01-5.5-1.99l-1.61,2.89-4.88-.89-.02,2.99-6.37-1.83c-4.08,7.16-9.64,1.46-16.62,2.83-1.02,3.87,3.75.48,3.99,2.98-3.3-1.36-4.08,1.71-4.78,1.95-3.36,1.15-7.12.37-10.44,1.33-2.44.7-7.01,4.67-7.46,4.75-2.06.37-4.19-1.3-6.31-1.02l1,2.98c-1.44.71-5.57-1-5.86-.84-.24.13-.4,1.81-1.16,2.27-1.37.83-6.64,2.85-7.67,3.81-1.79,1.67.18,5.02-5.31,3.77l2,2.49c-4.5,1.78-9.19,5.67-10.62,10.49-.54,1.82.51,2.86.45,3.54-.03.43-5.34,2.83,1.15,5.95-.43,2.93-3.55,2.12-4.01,3.16-1.17,2.63-.06,6.57.02,9.32l-3,.02c2.73,2.34,1.37,5.02,2,7.26.22.77,8.27,6.46,1,7.71l.51-2.99c-2-3.64-4.42,6.08-4.52,6.99,1.55-.23,5.52.07,5,2.49-.59,2.75-6.82.05-6,3,.23.84,2.31.31,2.56,2.41.31,2.53-3.88,4.65,2.45,6.11l-4,3.97c3.91-1.43,6.51,2.27,8.76,2.85,3.05.78,5.1-2.77,8.6-1.9,2.08,3.06.72,4.95,5.64,4.06l-.99-4.98c3.77-.39,4.85-.43,6.49,2.97l1.54-4.96,3.33-.03.65,1.99c3.39-3.91,5.03.13,7.43.09.73-.01.71-1.99,1.56-2.51,1.22-.75,3.04-.38,4.02-1.06.6-.42,5.03-10.69,4.98-.49,2.58-2.93,6.53-1.77,8.99-2.64.65-.23,1.25-1.39,2.08-1.77,10.92-5.02,22.5-8.29,33.57-14.38,3-1.65,8.28-1.77,12.08-3.87,9.96-5.51,27.57-12.5,39.22-16.86,1.63-.61,3.33-.23,4.97-.58l.14-2.74c.4-.39,9.37-1.04,11.14-1.38,1.07-.21,2.07-1.73,3.3-1.74,1.45-.01,2.5,2,4,2.01,1.9,0,3.89-4.04,6,1.02h2s.96-2.02.96-2.02l7.07,3.11,4.46-2.12c-1.9,4.57,2.57,5.48,2.83,6.57.7,2.97-2.54,3.08,4.16,5.95,1.14,3.53-3.36,2.17-2.97,5.47,1.35,1.25,6.51-5.09,7-1.48.19,1.44-2.15,4.15-1.81,5.84.44,2.16,5.17,3.02,2.83,7.58l3.97,1.56-2.99,3.47c3.8-1,6.26,5.42,4.51,8.06-.78,1.17-3.53.27-2.5,2.94l2.98-.99c1.18,1.32-8.96,14.85-10.25,17.24-3.89,7.27-2.88,4.41-8.32,9.66-1.88,1.82-4.08,8.36-6.38,9.55-1.13.59-2.43-.69-3.37-.56-1.04.14-.85,2.46-2.28,2.93-1.57.52-4.65-.33-5.31.27-.28.25.27,1.92-.72,2.93-3.62,3.69-8.42,3.45-12.38,7.41-1.23,1.23-.33,3.32-2.95,2.45l-.53-1.93c-1.49.73-1.05,3.18-1.76,3.8-1.25,1.09-4.18-1.56-1.73,3.18-3.71-1.08-3.55,3.39-6.07,4.54-2.24,1.02-7.58-1.76-4.37,4.47-4.4,2.45-6.82,9.23-12.57,6.99l2,2.99c-4.24-.92-4.24,3.43-9.01,2.01,1.7,1.35-3.01,5.61-4.11,6.33-3.12,2.05-6.11,2.37-9.46,3.58l-.44,4.07c-4.48-.72-2.68-1.59-4.98-4-1.15,2.69-1.92,3.91-1.03,6.93-2.55,1.93-5.65-.23-7.33,0-.83.11-.97,1.84-1.7,2.47-3.6,3.13-4.14-.48-7.95-.4l1.01,2.98-3.42,1.08c-2.08-4.74-3.98-1.23-.59,1.92-4.12-2.74-8.25,5.26-9.02.04l-1.97-.04c1.95,2.52-7.79,6.78-8.67,6.85-1.41.11-2.45-1.85-3.86-1.88-2.49-.06-2.99,4.3-3.97.02-4.31,1.46-3.29,6.59-7.96,7.08l-1.91-2.08-4.65,1.03.81,2.36-1.45,1.52-5.4-.39-1.48,1.5.33,3.37-3.8,1.6.99-3.98-3.83.18c-.29,1.11-3.8,7.11-4.14,7.37-.74.57-4.22-.99-5.53,3.43l-1.42-.09-.14-1.8-1.91-.1c.13,3.8-4.08,2.32-5.54,3.97-.9,1.01-.69,3.39-1.4,4.37-.77,1.08-3.15.72-4.19,2.04s-.53,3.2-1.23,4.28c-.5.77-2.69,1.49-3.14,3.36-.43,1.74.82,4.61.48,4.95-.21.21-2.34-.54-3.1.58-1.14,1.67-1.88,8.73-3.8,10.78-1.19,1.27-3.94.16-5.09,2.15l4,1.49c1.4,3.33-2.78,3.4-3.02,4.52s1.73,2.19,1.77,3.76c.11,3.65-1.73,6.63-5.76,5.72-.46,1.68,1.26,2.66,1.47,3.86.37,2.09-1.84,5.85,2.53,4.12,1.42,3.5-1.92,7.24-2.02,9.58s1.98,3.38,1.86,4.74-2.11,2.9-1.91,5.17l3.07,3.48h-4s2.49.99,2.49.99l.51,2c-8.95,4.82-.8,5.18.09,6.42.69.97,1.08,6.43,3.91,8.1l-4.98.98c6.84,3.45,2.74,5.83,2.02,11.45l3.95,1.54-2.99,4.98,3.08,2.07c-4.21,4.38.66,7.61.62,8.93-.02.69-1.69,1.74-1.69,3,0,1.42,2.92,9.54,3.1,12.06.07.97-3,5.99-2.68,8.9.2,1.82,2.9,3.85.59,7.51h4c-2.4,6.2-3.63,14.65,2.86,18.47l-1.86,7.51,3.99-2.98c-.35,2.17-1.31,4.25-1.12,6.53.18,2.08,3.47.75,1.18,5.34,4.98,2.32,7.86,10.19,10.51,15.03,1.77,3.22,3.9,3.66,3.44,9.07,1.85-.49,5.71-2.36,7.34-2.08,1.01.18.6,2.71,3.15,3.14.48.08,8.83-.54,9.25-.73,2.23-1.01.88-2.88,1.26-3.34.29-.35,6.96,1.28,8.99,0l-.99-3.98c4.18-1,1.09,5.61,4.48,4.98,1.53-.29,1.1-3.92,1.53-4.99,3.27-1.12.56,2.93,2.49,2.97,1.51.03.59-2.72.7-2.82.8-.78,4.13-.87,5.71-1.76,21.95-12.27,55.32-59.15,68.52-81.43,3.14-5.3,7.32-10.52,10.97-16.51,1.28-2.1,5.4-8.14,6.17-10.32.53-1.49.12-4.37.59-4.9.4-.45,2.48-.07,3.4-1.13.27-.31,1.57-7.27.44-8.01h5s-1.99-6-1.99-6l5.98,1.99-2.01-1.62v-3.36s6.02-1.51,6.02-1.51l-3-2.49c5.97,1.22,4.83-3.49,5.91-4.56,1.34-1.32,3.61-1.22,3.93-1.63.2-.25.71-4.45,2.19-5.8l1.83,2.31-1.84,4.67c5.59-.02,4.59-3.38,5.58-4.09,1.63-1.18,7.56-1.38,9.81-2.95l4.61,6.04,2.61-3.87,4.38-.13v5c2.82-.09,4.6-1.03,4.01-3.99h.98c-.21,2.68,2.88,1.87,4.53,3.98,1.05,1.35,5.25,10.41,5.72,10.83,1.08.95,2.72-1.4,2.74,2.68l5.02-.5.02,3.99c-2.03.23-4.69-1.17-4,1.99,5.05-.51,3.88,5.58,8.54,5.95l-1.01,4.05c-.78,3.41,3.41.46,4.46,1.01-.15,3.55,1.61,5.43-1.01,8.97l5.64,2.93c7.52-4.11-.31-4.6-.64-4.92-1.14-1.1,1.69-3.88,1.82-4.69.18-1.08-3.18-4.73-1.82-6.29,1.93-2.21,1.83,4.05,3.98,1.51l-3.78-12.19c3.82-10.49-4.21-24.38-6.03-34.98-.2-1.17,2.97-4.17,1.82-5.29-.2-.19-2,.34-2.74-.19-.69-.49-1.67-5.37-3.22-7.35-1.3-1.66-7.09-8.08-8.64-9.33s-6.73-1.39-1.39-3.61c-3.98-.92-2.45-4.52-3.14-5.34-.41-.49-2.69-.09-3.41-1.08-.8-1.1-.22-3.69-.72-5.32-.83-2.72-3.1-3.35-3.64-4.54-.29-.63-2.88-8.41-2.89-8.88-.11-2.66,2.78-5.62,2.84-5.98.73-3.96-3.59-10.18,1.97-11.84.59-2.11-2.79-2.23-2.99-2.51-.66-.99,1.83-3.03,1.99-4.5.2-1.92-1.47-4.31-.99-6.47l4.99,1.99c-3.29-6.69-.67-6.79,2.08-11.42.89-1.49.63-3.63,1.12-4.34,1.15-1.66,5.07.34,2.97-3.63,5.22-2.94.58-9.34,7.82-11.09l-2.99.5c-1.44-4.25,4.17-3.65,4.98-5.51l-2.05-2.01,2.07-9.42,2.9-.08c-1.47-3.83,2.04-5.3,2.11-5.62.82-3.92,1.14-14.55,1.08-18.88l1.8-.85c-2.56-5.08,4.74-8.74-1.9-12.56l3.01-.51-2.06-1.05c.96-5.19,3.66-11.52,3.09-16.78-.06-.58-3.36-.99-2.04-3.64l2.98,1c-.74-7.64,1.27-15.09,1.84-22.62.24-3.12-.88-7.59-.74-9.91.12-2.03,2.77-7.12,1.96-10.78-.22-.99-3.06-.13-2.05-2.64,5.27-.62,2.58-7.25,3.02-10.4,1.63-11.64,2.69-21.86,1.44-32.73-.53-4.54-2.96-3.56,1.15-8.79.67-.85,2.25-.99,2.34-1.12.32-.47-4.16-7.86,2.08-9.45-3-3.58-.43-3.98-.07-7.03.31-2.62-2.33-4.33,2.02-6.94-2.72-2-3.46-4.12-2.98-7.49l2.98.99c-2.16-3.12.65-5.51.68-6.52.02-.94-2.29-1.7-1.68-3.47h3.01c-3.39-3.81-.64-4.9-.28-7.62.17-1.26-.95-2.76-.81-3.72s2.07-.89,2.56-1.63c1.77-2.69-.2-8.33-.14-11.37.04-2,1.6-4.24,1.54-6.19-.06-2.12-2.43-4-1.88-6.45l2.97-.5c-2.64-1.77-.95-4.93-1.99-7.49l3.01-.51-.49-2.48c-5.51,3.12-.82-5.15,1.54-5.59l-2.05-5.41,2.99.99c-.96-1.71,1.58-7.46,2.56-8.93.71-1.07,2.53-1.3,3.03-2.07.66-1.01-.72-2.87-.59-2.98.28-.21,2.01.42,2.73-.22.2-.18,2.1-3.14,2.9-4.21,3.27-4.39,4.44-12.37,7.39-15.14,1.3-1.22,6.15-4.1,7.42-5.49.3-.32,2.35-4.75,2.58-4.9l2,.49.48,3.46c2.21-1.71,2.3-3.52,1.5-5.97l3.48,1.98c1.48-1.45,3.72-3.31,5.9-3.05.6.07.56,2.39,3.32,2.86,4.09.7,6.69-1.25,11.36.68,2.17.9,2.06,3.24,4.95,2.53l-1.02,1.98c4.99-2.02,3.88,1.11,5.79,1.98,1.83.84,5.66.12,6.02.3.22.11.28,1.42.87,1.73,2.54,1.35,5.13-.21,4.34,3.98,1.65.43.44-1.74,1.64-2.01,2.3-.53,5.05.27,7.99-.81,6.22-2.29,12.06-3.21,18.94-5.09,10.73-2.94,18.8-6.59,29.05-7.77,13.74-1.58,39.06-.97,52.43,2.14,30.6,7.12,45.44,17.5,64.38,40.59,2.98,3.63,6.54,2.79,3.56,9.93l5.55.96c-.15,3.73,2.27,7.06,3,10.05.33,1.36-.67,2.88-.55,2.97.59.46,3.71-.8,4.73,3.76.94,4.22-1.08,7.35.29,11.24l1.98-1-.93,8.87,4.02,1.77c-1.39,5.77-1.97,9.93.17,15.6.72,1.89,3.21,2.71,2.75,5.24l-3-.49v8.99s3.99-1.99,3.99-1.99l-1.77,3.49,2.77,3.98-4.99,3.02c-.01,4.29,4.53-.03,4.01,2.99-.5,2.87-3.08,4.6-4.19,7.81-1.68,4.85-3.32,13.22-.82,17.66h-3.01c-.19,2.34,2.15,2.58,1.86,5.23-.44,3.97-4.18,9.2-4.7,12.52-.26,1.69.84,3.95.72,4.12-.25.36-2.31.3-2.77,1.73-.37,1.12,1.1,5.63.66,6.18-.52.64-2.43.72-3.19,2.14-.38.7.28,2.47-.24,3.77-.46,1.17-2.54,1.67-3.31,4.8-.62,2.57,4.03-.63,1.97,1.96-1,1.26-2.85,1.62-3.9,3.12-4.4,6.31-8.49,13.84-13.07,20.63-1.16,1.73-3.85.78-2.02,4.72-3.83-.79-3.81,3.2-6.01,5.5-15.19,15.85-31.48,28.4-46.99,43.96-2.9,2.91-2.99,7.25-8.99,7.51l2.99,2.98-5.1.47c-.14,5.71-4.94,3.77-7.31,5.41-.98.68-.4,3.09-1.51,4.68-1.31,1.86-8.59,5.3-9.87,6.59-.16.16.99,2.29-1.65,3.88-1.57.95-4.46.96-5.16,1.93-.56.77,1.26,3.21-1.77,4.65-1.75.83-4.02.52-4.64.97-.94.69-1.29,2.4-2.6,3.31-11.13,7.74-20.58,14.03-30.78,23.65-5.58,5.26-6.94,7.4-14.11,10.29-1.01.41-12.76,13.71-14.5,15.88-.81,1-1.73,2.36-1.97,3.65.07.31,4.53,3.84,4.96,4,1.02.38,2.48-.65,2.88-.37s2.67,6.35,4.87,7.96c.49.36,10.37,4.33,11.22,4.56,1.52.42,3.36-.86,3.89-.51.44.3.53,2.57,2.15,3.41,3.26,1.68,10.55,3.21,14.21,4.8,14.03,6.1,28.43,13.54,43.25,18.74,1.71.6,8,2.86,9.11,2.93,1.44.1,3.76-1.3,4.32-.91.41.29.48,2.58,2.13,3.42.99.51,7.13,2.77,8.71,3.3,3.95,1.33,19.19,5.68,22.07,7.44,6.98,4.28,14.33,7.26,23.78,6.89.53-.02.34,1.69,1.11,1.86,2.14.49,4.39-.14,6.33-1.01l1.51,3.99c2.14-1.12,2.97-1.24,2.51-3.98,5.22,2.28,4.19,1.56,8.6.05,3.35-1.15,3.71,2.07,3.52-4.99l2.75-.13c-1.03-3.83,1.85-5.17,2.55-6.91.34-.86-.45-1.89-.34-2.36.14-.6,5.66-3.03-1.1-4.15l2.92-2.05c-2.76-4.52,2.01-7.23,2.09-11.06.08-3.9-4.91-4.11,1.97-8.14,2.3-19.12,7.16-37.75,9.9-56.81.85-5.88-.56-5.59,2.05-11.14,1.59-3.38.02-4.92.3-7.48.42-3.81,3.66-5.68-.25-10.2,4.55-2.17,4.91-9.38,5.07-14.02.21-5.73,3.74-13.05,4.59-20.14.32-2.62-.75-9.93-.54-10.71.34-1.27,2.82-1.18,3.48-3.52,1.01-3.55.22-8.2.84-12.13,1.36-8.66,3.01-18.3,4.43-27.58.56-3.61,1.85-5.86,2.02-7.02.33-2.21-3.72-1.54.18-7.56,2.5-3.86.48-1.29,1.15-5,.34-1.87,2.67-3.7,2.85-7.29.13-2.79-1.41-5.8-1.09-7.78.12-.75,1.78-.63,2.34-1.9.9-2.06,3.47-15.79,2.7-16.75l-2.98,1v-1.98c5.37-.9,2.71-4.64,3.23-7.24.2-.99,1.5-1.93,1.71-3.33.43-2.89-.06-5.95,1.09-8.78l-3.04-3.64c4.73.62,4.81-3.98,2.98-7.24-1.14-2.03-3.83-.62-1.97-4.78,2.05.25,3.52,1.95,4.87-.46l-3.88-10.52h3.01s-1.02-3-1.02-3l2.97-.02c.68-.72-2.62-13.14,3.02-12.99v-1.98s-3.98.99-3.98.99l.16-3.84,3.81-1.65-3.97-.99c2.46-2.65,3.12-5.2,2.7-8.7-.11-.91-1.5-1.88-1.6-3.24-.2-2.87.91-10.88,4.89-10.56l-.51-2-2.48,1.02c-.53-3.5,1.81-6.07,3.98-8.5-3.25-1.21-3.23-3.64-2.89-6.94.14-1.36,1.41-2.33,1.49-3.07.15-1.51-1.83-3.62-1.51-4.92.29-1.15,2.51-1.03,2.92-2.29,1.26-3.9.63-8.59-1-12.25l4-1.99c-4.94-.41-1.47-4.65-3-7.98,8.37-1.12,2.06-5.24,1.97-5.71-.34-1.76,1.09-5.05.02-7.31l-3.98-.49c.6-1.64,2.76-.55,2.85-.66,1.09-1.37.96-6.8,1.24-8.79l2.89-.06-1-12.99,2.99,1-3.97-6.43,4.99-1.56-1.78-4.51c3.57-2.91,2.55-4.44,1.77-8.47l3.01-.51-2.92-3.87c3.28-5.31,2.81-6.57,9.91-5.62l-.95-2.87,2.94-1.61-1.98-5.5,2.37.99,2.66-2.61-3.03-7.37,3.03.61c.42-3.85,4.93-5.7,6.71-7.92,1.06-1.32-1.3-4.34,3.77-1.71l1.96-4.86,3.52.89-.99-3.98,5.99,1.99c.7-3.39-2.92-.71-1.98-3.98l1.75-.17-.78-1.83c3.17,1.77,6.89-2.74,7.48-2.76.3-.01,3.61,1.99,5.51,2.37,2.98.6,7.17.39,10.51,1.38l-.5,1.99c2.19.42,2.7-1.27,3.06-2.97,3.69,2.04,3.3,4.04,8.21,1.93,1.21-.52.06-2.75,2.73-1.94l-.99,3.98c2.4,1.48,1.94-4.03,3.99-1.98.37.37-1.55,2.64-.05,3.52l5.05.47-1,2.98c4.04-1.72,5.24,2.02,5.58,2.04,1.15.04,2.84-1.49,4.42-1.02-1.95,4.16.55,5.91,4.47,6.99l2.53-2.99c-.82,2.97,2.91,5.13,2.88,5.45-.09,1.05-1.26,1.84-.66,3.3.57,1.39,4.59,1.98,4.77,2.78l-.87,3.98,1.47,1.34c1.16-1.55,4.7,1.52,5.51,2.58,1.64,2.15-2.15,6.75,3.88,4.54l1.03,8,2.99-1-1.96,3.5c2.74,1.73,3.18,4.48,6.96,3.5l-3,2.01,3.01,2.5-2.04,3.96c6.75,2.1.51,11.26,7.03,10.51-2.6,6.1,2.31,12.84,3.52,18.43,1.04,4.79-.22,12.6.52,17.99.37,2.69,1.91,7.46,2.97,10.03v1.51s-3.02.5-3.02.5l3.99,3.1c-2.16,7.82,1.57,14.95-2,22.38h4c.41.31-2.44,6.68-2.66,7.68-.19.91.56,2.2.39,3.58-.16,1.28-2.26,1.76-.72,4.01.47.69,2,.69,2.01,1.3.01,1.04-1.11,2.53-1.08,3.96.08,3.19,2.13,12.27-.76,12.59l-.18,1.35c4.11,2.65,3.82,5.69,5.99,9.01-6.26,2.81-.68,8.13-.47,12.39.28,5.78.67,4.15,1.46,8.69,1.23,7.09.82,17.33,1.63,25.08.51,4.88,1.14,2.91,1.41,3.98.36,1.47-1.32,5.03-1.07,6.76.06.39,7.19,1.83,1.99,4.11,2.92,5.36-2.67,10.09,4.03,12.93l-3.97,4c2.77,1.71,3.18,4.49,6.98,3.5-.6,2.02-5.07-.06-2.99,3.99.07.13,2.19-1.4,2.97.5-1.25,1.56-2.94,4.95-2.92,6.84.02,2.49,2.65,10.46,2.58,11.13-.08.82-1.74,1.79-1.55,2.88.17.99,2.26,1.81,2.72,3.36.29.97-.61,2.36-.24,3.32.5,1.31,3.49,2.31,3.48,4.45l-2.08,2c2.57,3.84.51,7.3,3.58,11.41l-1.54,9.05h4c.14,2.44-2.33,3.88-2.04,6.47.24,2.07,2.42,2.72,2.85,4.24.45,1.55-1.33,6.23-.39,7.3l4.59.98-1.01,3.98c5.01-1.34,8.46-.07,13.31.85,2.98-1.19,2.87-4.07,2.7-6.84l2.5,2.98,4.49-3-1.99-2.47,2.99-1.5.99,1.98c2.21-4.89,4.88-9.27,7.62-13.88.56-.95,2.25-1.26,2.83-2.16.32-.5,4.37-10.12,4.42-10.69.23-2.47-1.85-3.53-1.84-3.74,0-.66,3.45-1.28,3.83-4.22.37-2.89-1.34-3.78-1.36-4.76-.05-2.25,1.09-4.79,1.02-7.02-.05-1.59-2.62-4.88-.51-8.48l-2.89-.06-.2-5.51c4.1-2.96-2.34-7.37,4.1-7.94.33-4.69-3.36-8.91-3.66-10.97-.38-2.64,3.53-1.8,2.64-4.49-4.48,1.7-4.2-.5-2.98-4l3,1.48c-.44-4.93-.23-7.71-3.06-12.04l2.04-2.92-2.77-3c2.49-3.4,3.38-6.2,2.77-10.5l-2.98,1c-.68-3.2,3.8-2.12,2.98-4.47-3.78-2.87-3.46-4.79-.97-8.51l-3.02-.02c3.39-5.16,3.78-7.98.91-13.5l2.09-2.46c-3.85-.44-4.81-4.94,0-4.02,1.12-3.5-5.21-3.63.03-5.49v-2c-5.9-2.9-2.23-7.57-1.02-12.49h-3.01c-1.05-3.04,3.77-5.22,3.64-7.48-.12-2.11-5.31-6.04-.64-9.02l-2.99-.5c-.46-1.69,1.95-.49,2.05-1.51.21-2.02-2.21-3.82-2.19-6.97.01-2.79,2.17-5.01,2.03-5.86-.27-1.62-4.45-3.25-4.92-6.19-.45-2.85,1.26-5.6,1.03-8.44l1.99,1.01c.14-4.87-2.58-7.45-5.99-10.5l2.99.51,1.07-3.41c-4.46-1.31,1.27-4.77-3.95-5.71l.13-9.46c6.81-3.97-.32-3.21-.23-3.9.41-3.05,4.61-4.32,3-8.51h-4.02s.49-1.8.49-1.8c1.26.87,1.9,1.31,1.52-.7-.57-3.06-3.61-5.07-4.03-7.98-.66-4.57,4.97,2.7,6.01,1.48.17-1.92-.28-5.43-2.02-6.52-1.04-.65-3.02,1.01-3.97-1.01l.99-4.45-4.99.99c-.3-3.65,3.13-2.86,4.98-4.51l-3.99-1.49,4-6.97-5.99.99,3-7.99c-3.41.29-6.76.24-6-4l4.96,1.53c-.68-4.89-3.09-2.57-5.96-5.04l.51-2.51,3.47,1.02c-.06-.82.16-1.76.03-2.52-.56-3.25-2.37-.93-4.03-3,1.8-2.73,2.5-6.62-1.02-7.98l.03-1.98,2.99-1.52-.14-1.87-1.87-.6v-1.99s3.04-3.03,3.04-3.03l-2.03-.97v-2.02s2.03-.98,2.03-.98c-4.64-4.26,1.76-10.77-1.01-16.49h4.01s.11-6.9.11-6.9l3.83-.14c1.07-3.67.16-5.58-.93-8.94,7.98,1.95,2.84-4.12,2.95-8.49l3.03-1-3.99-3.48c3.17-1.36,4.43-2.59,7.99-1.02l-1.99-4.97c3.54-.43,4.9-3.79,5.04-7,.13-.1,2.84-.11,2.96-.01,2.18,1.76-3.52,1.8-1.98,3.99,2.18-.98,4.51-1.68,4.02-4.5-.17-.96-2.48.2-2.02-1.48l3.01-.52c.93,4.11,3.46.67,5.49,3.48l1.09-2.03-1.59-2.47c3.32-.86,1.44-4.3,3.09-6.93,1.32-2.1,9.85-3.62,10.76,1.11l-1.84,5.34c4.31.54,4.35-9.37,6.05-3.08l1.93.07c-.67-1.42,2.76-3.24,3.01-2.98,2.02,2.14-2.51,1.57-1.99,2.99l5.53-.84,1.4,2.26-1.94,2.58,2.5.03,3.48-5c-.37,2.84,1.82.63,3.01,2.53l-.98,5.45,4.98-3.99.02,3.99,2.99-.99c-1.4,2.99.67,4.65,2.97,6.56,2.99,2.49,9.27,5.46,12.01,7.98,1.97,1.81-.52,4.71,6.02,3.45-3.13,8.79,5.69,5.87,7.51,7.97,2.05,2.37.27,5.43.71,7.26.96,4.04,6.88,7.55,3.77,11.73l2.84.12c-.69,4.02,2.22,4.14,3.18,5.64,3.18,5.01,6.75,11.17,6,17.23l4.99-.99c-6.27,4.33-3.99,9.4-.94,15.46l-2.11,1.04c-.2,1.81,1.46,3.07,1.81,4.8.37,1.85-2.13,5.34-1.71,7,.2.79,1.56.76,1.92,1.39,2.73,4.69-1.46,2.94-1.86,4.82-.42,2,2.79,5.33-2.1,7.96-.88,2.75,7.3-1.26,3.98,2.47-.24.27-1.95-.01-2.66,1.45-.31.64-1.4,13.08-1.37,14.09.08,3.2,4.51,7.82-1.96,7.46l2.76,5.5-2.76,2.99,2.99,2-2,2.49,2.85.49c-1.62,2.15,1.07,3.27,1.19,5,.04.61-1.83.31-2.04,1.2-.3,1.26.43,2.95-.21,4.12-.3.55-2.61.82-2.81,1.7-.27,1.2,2.01,2.39,1.87,3.81-.12,1.22-2.01,2.59-1.72,4.02.24,1.21,2.59,2.22,2.66,3.13.09,1.09-2.31,2.82-2.51,4.16-.35,2.36,1.79,4.54-1.28,7.84l4.01-1.48-2,4.47,3.99-.48c-.02,5.61-6.68,3.61-5.01,9.29.43,1.45,3.75,1.09,3.01,3.7l-5.97,1.5c3.3,3.35,4.19,5.71,1.96,10.48l3.99,1.51-4.99,7.98,3.99,2.01-3.48-.5-.5,2.49,3.01.51c.61.61-2.33,5.22-1.86,6.51.26.71,1.75.35,1.84.49.19.27-2.64,2.44-.95,6.24.58,1.31,2.32.13,1.95,1.73l-5,.52,5.01,7.48c-4.36-.73-5.26.29-7,3.99l6.99-1.98c1.25,2.73-1.86,2.95-1.99,3.66-.6,3.46,1.48,4.97-3,6.83,6.89,1.04,2.02,5.19,2.2,7.82.13,1.78,2.72,4.03,2.8,6.14l-5,2.02c4.84,2.13,3.05,4.53,1.44,8.58l3.56,4.4c-1.54,2.45-2.89.74-4.99.52,1.51,2.55-.18,4.03-1.02,6.48l3.01.5c.46,3.51,1.56,4.99-1.11,7.47l2.15,5.02c-2.4.09-2.22,4.03-1.83,6.03.13.64,3.14-.21.42,4.15-.36.58-2.45-.22-1.63,2.32l2.81.13,1.2,5.35-3.11,1.11c-1.17,1.89.13,3.84-.14,5.63s-4.57,5.24.75,4.97c.86-.04.71,1.55.55,2.33-.45,2.23-4.76,2.79-3.06,7.45l3.99-.99c-2.99,3.66-1.47,5.81-1.19,9.51.24,3.26.5,4.23.55,7.79.03,1.88,1.49,3.67.14,5.7-.48.72-2.44.65-2.58,1.61-.2,1.38.43,8.43,3.08,7.37-5.27,3.36-3.35,6.67-4.01,11.96l3.01.51c-4.05,1.34-5.39,8.39-1.09,9.58l.11,1.41-3.02,2.03c2.88,5.82,1.04,13.61.94,19.93-.3,19.66-.35,39.21.37,58.86.4,10.69,1.63,21.5,1.8,32.09.03,1.9-1.41,4.66-1.03,5.89.4,1.31,2.65,1.19,2.93,2.26.14.55-.86,3-.63,4.63.38,2.69,1.83,5.57,1.73,8.25-.07,1.9-2.11,1-2.22,2.92-.14,2.28.86,4.14,1,6.15.33,4.68-.95,9.33-.32,13.85.47,3.39,2.96,6.36,1.5,10.43l3.94,1.59-2.91,4.41,2,.67-1.09,4.39,4.99,1.51c-3.35,4.42-5.61-1.67-4.75,5.87l5.77,2.14-4.99.48c-1.93,3.07,9.8,4.24,9.62,8.51-.04.93-1.95,1.48-1.2,2.49.17.23,4.11,3.2,4.64,3.49,1.36.75,2.74-1.56,3.35,1.38,1.43-1,3.47-.5,4.81-.97.44-.15,4.79-3.41,5.57-3.81,3.39-1.73,7.4-.66,6.2-6.1l4.87.94c.98-6.54,8.64-5.73,12.53-9.03,1.73-1.47,1.62-3.75,2.58-4.42,1.33-.93,4.31-.24,6.43-1.57,3.19-2,6.63-7.66,8.61-9.38,1.94-1.68,5.09-1.1,5.78-1.72.54-.49.21-2.67,1.14-3.37.54-.41,1.85.64,2.79.34,1.02-.32,2.69-4.81,3.27-5.23,1.27-.94,7.02-1.98,9.02-2.53l-1.03-2.98c4.23-.09,5.73-2.07,4.02-6,2.63-1.29,1.68,3.78,3.98,1.98.21-.17.57-3.44,3.01-3l-2.99-2.97,8-1.02-2-2.98,4.07-.44c2.05-7.23,8.84-12.87,15.94-15.57l-1.01-2.98,5.99-1.52c.44-2.27-5.76-2.61-2-4.99,2.04-1.29,4.48,3.55,6.54.54,1.97-2.88-1.91-5.75-1.53-6.02l9.56.6c4.28-3.1,8.41-10.66,13.84-6.66,2.87-4.65,3.3-5.59,9.25-5.94,1.01-.06,2.8,3.54,6.29,2.11l.1,2.79,3.94.11-1.99,4.99,7,1.01-1.01,2.98c3.65.37,4.21-.92,3.01-3.98l3.99,1c.36-.34-.93-4,1.49-2.99,3.04,1.28-1.53,3.97-.48,5.98,3.01-1.01,3.07,1.87,3.97,2.41.76.46,2.11-.48,3.55.47,1.53,1.01,3.04,4.91,4.04,5.1s2.03-1.43,2.94-1.58c2.97-.5,4.09,8.41,8.49,8.61l-1.99,2.97,1.99,1-2.05.53.12.88c4.21,5.35,2.54,12.55,5.97,18.13l-2.06,2.03c2.09,3.6-.55,5.93-.97,9.42l4.97-.5c-4.45,3.78-2.55,5.02-3.2,8.76-.52,2.96-2.96,5.92-.77,9.72l-5,1.52,2.98.49c-.12,3.37-3.77,1.38-.99,5.98l-3.85.14c-2.21,4.22,2.37,9.54-5.14,6.86l1,4.99-5,1.02c-.46,2.34.43,1.7,1.99,2.44-1.49,5.11-2.53,3.84-6.82,4.71l-1.17,6.83-4.52-.05.52,9.03c-7.34-3.54-3.76-.13-4.3,3.39-.65,4.21-2.44,9.78-2.71,14.1-.29,4.64,1.45,25.17-1.97,27.05l-3.06-1.23c.83-12.09-1.13-23.91-2.98-35.8-.18-1.14.57-1.99-1.46-1.49-1.56.39-6.83,5.69-9.29,6.2.08,7.44-1.97,4.38-6.38,6.07-7.32,2.8-9.95,7.62-14.86,11.19-1.54,1.12-4.04,1.18-5.01,2.02-1.86,1.62.61,4.83-5.98,3.49l1.01,2.98h-3.01s1,5,1,5c-9.42-2.71-7.09,2.73-10.41,5.09-1.99,1.4-5.26.3-6.57,2.43l2.99,2.47c-3.18-.91-3.12,1.96-4.6,2.86-2.21,1.33-4.91,1.74-6.9,3.13-1.79,1.25-3.36,4.59-3.71,4.78-1.2.66-3.29-.19-4.78.71-.94.57-1.22,2.6-1.95,3.04-1.56.96-4.93-3.46-5.06,4.47-6.12-2.58-4.14,1.77-9,2.01l.52,2,4.48.97-4.91.04-1.65,3.87-6.33-.79c.03,5.23-3.42,4.82-4.77,6.22s-1.86,3.16-3.85,4.66c-1.34,1.02-5.88,2.51-6.29,3.23-.63,1.11.1,3.46-.2,3.77-.27.27-3.08-.3-4.36.15s-1.38,2.24-1.85,2.53-1.97-.6-2.84.69c-2.46,3.64,1.63,4.9-5.83,4.58l-1.61-3.92c-2.52,4.83-7.44,3.9-10.48,5.54-.34.18-5.36,5.09-5.52,5.44-1.14,2.54.14,5.58-1.61,8.38s-7.42,3.59-9.66,1.36c-1.65-1.64-1.05-6.63-3.22-7.75-.29,2.27-1.65,4.29-1.93,6.57-.49,4.06-.98,10.73-1.13,14.86-.3,8.95,2.48,23.29.83,30.8-1.01,4.6-5.05,5.52-9.26,4.69-7.24-1.44-3.32-12.39-3.47-17.49-.28-9.28-2.04-23.23-3.06-32.94-.95-9.06-5.99-8.06-12.98-10-3.54-.98-6.38-1.43-9.63-2.31-6.11-1.66-7.45-4.3-11.04-9.04-4.31-5.67-2.85-2.76-6.71-6.07-1-.86-.16-2.54-1.28-3.13-1.91-1-5.75.99-7.34-2.44l2.98-1.99c-1.05-2.29-3.69-.15-4.51-1.49-.6-.98.75-2.24.43-3.36-.11-.37-3.19-5.03-3.88-6.16-1.88-3.05-6.97-5.97-5-9.46l-3.91-1.61-.09-3.4,1.98,1.01c2.09-4.4-4.82-7.96-5.02-8.7-.88-3.43,1.68-7.77,1.04-10.61-.17-.74-1.81-.6-1.99-1.36-.45-1.87.22-4.32-.03-6.32l-1.98,1.01c-.61-1.86,1.06-4.08,1.02-5.43-.02-.66-2.03-.14-2.15-2.03-.19-3.19,1.82-3.89,2.12-6.53h-3s3.88-9.67,3.88-9.67c.17-1.49-6.58-7-.89-7.33v-.97c-3.51.06-3.51-5.08,0-5.03v-1.96s-2.89-1.48-2.89-1.48c2.14-3.46,4.9-12.31-1.09-11.54,2.99-3.32,1.19-5.41,1.22-8.49.08-7.56-.56-19.22-1.32-26.85-.29-2.92-2.91-7.11-2.89-8.12.02-1.37,1.79-2.39,1.9-3.94.28-3.98-2.29-11.17-2.61-14.21-.82-8.01.27-28.51-3.66-34.97-.5-.83-2.56-.73-2.74-2.85s1.98-3.39,2.06-4.98c.1-2.12-3.86-6.29-2.95-7.5,6.64,2.34,3.04-3.21-1.45-3.07-.4.01-.92,4.03-2.55,2.06-1.2-1.44,4.36-4.76,2.99-5.98-1.47-1.3-3.95.44-3.04,2.93-2.14.48-4.21-.59-6.3-.55-6.12.11-4,4.08-9.65,6.16l1.98,3.95c-6.28,2.3-.98,6.84-6,9l3.01,2.51-3.01,4.96c3.04-.04,4.56.87,4,4.01-8.02-1.86-.43,2.72.03,5.55.61,3.76-2.41,5.09-1.01,8.45l1.98-1.01c-3.08,4.1,1.21,11.37.82,13.36-.26,1.33-2.78,2.64-2.8,3.13-.02.68,3.76,2.47,2.99,4.49-6.95-.45-.39,4.14.01,6.53.93,5.55-1.2,12.53-.95,17.88.27,5.81,3.57,14.32,4.36,19.46,1.43,9.31,1.45,19.14,3.53,28.47l3.05.61c-3.09,8.35.61,15.12,2.71,22.78.83,3.05,2.19,5.28,2.17,5.62-.11,1.69-1.45,3.22-.86,5.86.16.71,1.6.75,1.93,1.5,1.44,3.2-.46,7.88-.95,11.19h3.99s-2.07,6.42-2.07,6.42c.14.99,4.22,1.12,3.09,4.08l-2-.5c-.53,4.69,5.88,4,3.91,9.94l-2.91.55,5.04,7.99-2.04,1.99,6.06,3.12c-1.03,4.83,1.86,10.66-1.06,14.37l4.58.97c1.11,1.44-1.68,5.7-1.61,7.46.01.35,4.03,2.6,3.53,5.67l2.49-.1-4,5.99,3.01.02c.48.37-1.99,1.84-1.87,3.32.26,3.03,9.34,12.59,5.86,17.64l4.01,1.04c-2.14,3.49.04,7.71-.3,10.31-.29,2.13-1.96,5.82-1.37,9.22.17.99,1.98,1.01,2.64,2.22,2.18,4.03.57,5.69,1.01,8.5.07.43,3.24,2.04,3.03,3.69-3.56-.72-2.93,1.32-4,4l2.99-1,1,4h-4.98s4,3.01,4,3.01c1.03,3.21-3.21,1.25-3.85,3.57,1.49,2.54-.59,5.68-.02,7.7.57,2.02,4.02,2.29,1.79,5.1l-11.91,8.11c6.03.71,2.22,4.67-2,2.5l.99,4.99c-4.54-1.34-3.19,4.15-4.14,4.89-.63.49-2.59-.29-3.63.33-.62.37-.68,2.38-1.78,2.66-3.82.94-7.44-4.97-9.89,5.26l-3.54-.15-1.03,5.01-2.47-1.02.48,3.01-3.51-3.98-1.4.1c.04,3.03-4.69,1.81-7.08,2.89l-.02-4-3.49,2.99-1.99-2.98-4.5,2.98c-.92-1.23,3.29-8.28-2.84-4.54l.83,3.54-4.91-1.56.91-3.42c-1.79.34-3.69.65-5.5.12-1.7-.5-1.32-1.63-2.16-2.01-.35-.16-1.58.64-2.35.33-3.78-1.54,1.3-3.58-1.43-5.49-2.27-1.59-4.92-.86-7.55-.96l2-2.98c-5.14,1.43-6.47-5.43-7.16-5.85-1.27-.78-4.59.75-5.82-1.66,2.07-1.58,3.68-1.28,2.97-4.5l-4.84-.16c-1.46-5.35-2.29-10.65-1.3-16.25l-3.86-1.59c2.6-5.57-.6-4.4-1.34-6.24-.63-1.55.12-3.19-.12-4.77-.59-3.75-3.87-5.13,1.46-7.48l-2.99-.49c1.15-3.77,2.62-6.29,2.07-10.54-.19-1.44-4.04-4.73-4.05-5.06-.07-1.55,1.5-4.32,1.49-6.31-.01-1.78-2.32-3.68-1.52-6.06.59-.59,5.24,1.16,4.99-.99l-1.78-.51.78-1.45c-8.11.55-.8-10.61-2-12.03l-2.98,1,2.04-5.47c-4.18-1.29,1.3-11.94-4.09-14.02l2.02-2.99c-6.32-2.67-2.06-5.96-2.4-7.55-.71-3.34-5.16-2.68-1.53-8.41-3.4-.84-.99-2.46-1.64-5.33-4.95-21.85-8.74-44.59-14.12-65.93-1.54-6.09-2.87-10.29-3.5-15.45-.75-6.12-6.55-6.22-6.84-7.39-1.3-5.14,3.34-7.33,3.04-8.81-.98-2.3-3.36-.2-3.86-.56-.32-.22-3.6-6.48-3.69-6.86-.49-2.13,2.26-4.19,3.54-5.58-1-1.98-3.83-1.02-4.78-1.68-1.09-.76-.69-6.56-3.71-7.8-1.72-1.02-1.58,4.08-3.48,1.98-1.07-1.18,2.41-3.46,1.99-3.98-4.53-.59-7.32-1.93-10.5-5l-.49,4.51c-.93.62-4.97-.8-6.46-.48-3.09.67-3.38,4.23-7.54,1.96,1.55,6.15-4.52,4.83-6.74,6.25-.48.31-5.41,7.27-7.27,8.24-1.16.61-2.69.44-3.98.53-1.14,3.83,1.33,2.98,1.97,5.44l-4,1.53c2.71,5.18-3.13,6.74-.99,11.98h-3s1.94,4.38,1.94,4.38c-7.59,5.62-2.96,11.65-.96,19.12-2.56,2.08-2.41-3.25-4.97-3.51l-1.02,7.99,2.91.06.1,4.94-9.52,1.99,1.52,5h-4.01c-1.02,3.61,1.99,1.99,2,4.49l-4,1.52,1.03,2.98c-1.24-.17-5.54,1.61-5.9,2.21-.39.64,1.38,2.32-.11,3.32-.71.48-9.62.72-3.01,4.96-4.16,2.05-5.62,1.75-7.51,6.49l-.47-4.47-2-.51c-4.68,5.75,1.1,6.72.96,8.49-4.32,3.17-6.26-.94-6.87,6.38l2.88,2.59c-.93,1.55-3.58,1.27-4.49,2.51-2.33,3.17-6.34,21.26-7.44,26.52-.56,2.66.31,5.78-.28,8.72-.86,4.21-5,9.52-3.78,15.04.2.9,2.83.31,2.02,3.17-.11.38-1.98.4-2.06,1.13-.19,1.56,1.44,4.13.05,6.36l4.99.02c.34,1.95-2.36.47-2.93,1.04-.48.47.27,3.85-.07,5.29-.21.89-3.77.4.01,6.12l-3,1.55.75,1.96,2.31.56-.07,6.45c-3.21-1.03-4.85-1.57-6.99,1.51l2.02.98-.06,1.99c-4.28,1.83-3.2,4.87-4.77,8.21-2.29,4.86-5.78,9.94-6.2,15.29l-.97-2.27c-2.76-2.94-3.73,1.92-4.99,2.72-.67.42-2.13-.33-3.03.03-2.29.91-3.4,2.45-6.5,2.45-3.88,5.87-.37,32.06-1.45,40.58-.29,2.28-1.62,3.39-2.07,5.44-1.27.27-1.69-.12-2.53-.94-3.08-2.99-2.67-24.63-3.55-30.42-.43-2.83-2.93-12.72-4.43-14.63-.81-1.04-6.21-.98-7.49-1.6-1.14-.55-1.83-2.09-3.1-2.74-1.86-.96-7.37-2.55-7.67-2.82-1.01-.92.2-5.02-5.22-3.79l1.01-3.98c-5.71,0-6.45-9.77-9.08-13.96l-1.91.96c-2.47-3.96-.72-8.4-1.04-11.45-.21-2.03-2.97-3.36-.98-6.53h-3.02c2.37-4.45,2.72-6.37-.99-9.99,8.5.44,2.06-3.32,1.98-3.68-.29-1.3,1-3.58.77-5-.31-1.94-1.92-3.03-1.87-5.84.04-1.85,1.86-1.35,2.45-2.75,4.66-10.88,5.29-37.39,6.58-50.37.3-3.01,1.78-7.38,1.75-7.8-.16-2.02-3.03-2.92.33-7.49-3.7,0-3.17-3.42-4.73-5.08-1.8-1.92-5.45-.66-6.27-2.44l2-2.48-4.51-2.01-.99,1.99c-1.8-5.46-2.94-3.27-5.51-4.65-1.44-.77-2.91-3.04-4.66-3.2-1.7-.15-2.37,2.37-4.33,1.85l1-3.98c-3.3-1.02-6.06.17-9.47-1.02-3.06-1.06-3.4-3.73-7.53-1.98v-2.99c-6.35,1.83-4.54-.75-6.14-1.92-.55-.4-2.54.98-4.12.71-2.74-.47-5.39-5.31-6.01-5.55-5.4-2.1-13.51-3.38-19.59-5.88-30.29-12.46-62.28-30.97-92.44-42.52-1.26-.48-7.7-2.82-8.24-2.82-2.55.02-3.07,5.64-5.56,7.48l2.19,13.09-2.12,1.94c4.15,4.59-.63,5.4-.81,8.14-.08,1.29,1.65,2.29,1.75,3.78.19,2.75-1.51,7.09-.95,11.1.69,4.88,5.61,5.57.06,7.95l2.97,1.52c.51,2.29-.59,1.7-2.04,2.49l2.08,4.98-2.03,1,2.99,3.02-2,2.97c5.51,2.57.72,6.36.89,10s4.6,4.5,2.11,9.49h3.01c-3.99,3.56,1.02,6.66,1.95,8.74.37.82-.22,2.46.07,3.53.24.89,1.87.69,2.01,1.35.58,2.79-1.91,3.94-2.03,6.35l3.84,1.15,3.21,14.29-1.99.61-.06,1.44c3.96,2.18,6.13,5.86.96,8.02l.03,1.92c2.59,1.51,4.87,9.15,4.91,12.17.05,3.57-2.35,5.85-2.83,8.94-.69,4.51,1.38,9.73,2.76,13.92l-5.89,6.09,3.05,7.4-4.99-.99c-.64,2.27,1.86,3.82,2.03,5.57.29,2.95-4.58,5.63.96,10.41l-7.9-.88-2.1,8.89-2.83-.26-1.16-1.74c-.05,5.33-3.63,5.2-5.44,7.02-2.27,2.29-3.06,6.04-7.43,6.1l-2.16,17.85h-2.97c-.68-6.21-4.01-11.53-3.02-17.98-3.54-.31-2.1,4.68-6.48,4.04l-.73-1.74c-6.39-.78-.96,2.97-2.69,7.22-4.46,10.92-12.5-2.55-11.09-9.53-2.61,1.89-4.65-.63-5.51-.64-1.04-.01-1.69,2.27-3.48,1.64l.99-3.98c-3.91-.74-4.55,1.25-6.5,3.97-.55.02-5.19-7.41-6.8-8.67-.99-.77-2.97-.52-4.1-1.42-3.8-3.03-6.9-11-8.88-12.6-.72-.58-2.67-.32-3.27-1.19-.65-.95-1.91-11.72-3.39-14.53-.31-.59-3.17.64-3.93-2.17-1.04-3.81,4.94-1.57,3.84-7.29l-2.97-.06,3-9.5-2.01-1.08c2.38-3.78-1.65-13.33-.91-15.79.4-1.34,2.84-1.25,3.01-2.25.2-1.24-1.26-3.87-1.2-5.89.04-1.16,4.24-3.26,1.21-7.89,6.17-1.93,2.77-6.14,5.95-11.13l-2.09-1.94c3.36-4.05.33-5.69.28-7-.02-.6,2.3-1.84,2.75-3.99.52-2.52.85-6.42-1.98-6.97,3.56-6.47,3.97-18.11,1.96-24.93l2.11-1.18c-1.49-2.89-.41-7.34-1.21-9.76-.35-1.06-7.52-4.52.14-4.62,1-2.74-2.73-5.7-2.9-6.62-.21-1.13,1.65-2.03,1.47-3.42-.23-1.82-2.53-1.9-2.6-2.58-.33-3.05,2.85-6.94,2.81-8.68-.05-2.68-4.21-7.24-4.35-9.18-.1-1.42,2.96-9.16,2.58-9.46-3.06-.17-7.66-.19-8.02-4.01l-2.88,2.64,1.83,4.68-5.91,6.17,2.97,2.48c-4.33.57-1.87,7.7-3.23,11.24-.58,1.5-2.32,2.36-2.61,3.45-.5,1.93,2.02,7.52-.16,10.79h3.01c-1.15,4.1-2.87,1.28-4.03,2-.96.59-1.65,3.23-2.96,4.02h3.99c-2.82,3.15-5.17,7.87-5.92,12.03-.28,1.57.23,6.08-.12,6.4-.32.31-5.73-.06-7.46,4.08-.53,1.27.51,2.63-.02,3.89-.37.87-3.28,6.77-3.6,7-.45.32-7.22-2.09-2.95,4.42-2.3,1.62-2.75,5.1-4.36,6.69-2.04,2.02-5.8,1.22-5.57,5.94l-3.98-1c.64,1.9-1.13,13.83-4.1,10.34-1.13-1.32-.48-3.09-3.91-2.34l1.98,2.47c-3.48,2.44-1.81,4.92-2.93,8.05l-8.08.94c-2.13,2.01,2.83,2.48-.51,4.52l-4.47-1,1.99,4.98c-6.28-.86-3.81,5.41-8.99,5.02l1.99,1.98c-4.14-.84-2.76,1.86-3.89,3.34-.79,1.03-3.2.9-4.71,2.57-1.13,1.25-1.15,3.58-2.03,4.18-1.38.94-4.43.45-5.16,1.12-.52.47-.11,2.54-1.16,3.3-3.33,2.4-1.84.68-5.31,4.21-1.51,1.54-4.81-.77-2.74,5.27h-5.98s1.99,2.99,1.99,2.99c-6.26-.43-5,2.36-7,4.47-1.43,1.51-5.18,1.86-7.04,3.99-1.63,1.87-1.51,4.69-3.02,5.98-4.38,3.73-10.53,5.48-14.73,8.72-.13.1.82,2.58-.73,2.83-1.32.21-6.55-4.9-4.89,2.04-4.85,2.43-8.45,6.53-13.11,9.9-2.77,2.01-9.44,7.21-11.5,8.47-1.49.91-9.85,3.9-11.33,3.6-1.02-.21.24-3.04-3.63-1.03l1.99,1.97c-1.21.35-2.93.2-3.99.71-7.42,3.6-13.44,6.41-21.68,7.96-1.7.32-3.64-2.18-3.34,1.31h-1.97s-.57-2.03-.57-2.03l-2.89,1.1c-.6,0-.66-1.94-1.05-2.07-4.29-1.46-.53,4.55-5.5,3.01l.99-3.98c-2.62-.74-2.34,2.7-3.7,3.03-1.81.43-7.76-.55-8.86-2.03-.68-.92,1.04-3.06-.95-3.99l-2.88,1.94c-3.28-.49-2.15-3.37-3.25-3.97-3.87-2.1-15.82-3.98-20.45-5.4-2.01-.61-1.96-3.44-4.89-2.57l1-4.98-2.79-.21c.22-3.85-2.68-2.82-4.75-4.79-2.32-2.21-4.3-6.06-5.73-7.72-4.16-4.8-10.63-5.53-15.12-15.25-7.28-15.77-15.75-33.72-21.1-50.98-2.91-9.39-2.61-21-8.49-28.5l.19-1.33c5.84-3.07-1.36-2.83-2.1-4.74-1.43-3.7,2.08-3.01,2.01-4.86-.09-2.46-2.15-4.06-2.58-6.37-.5-2.74.22-8.47-.51-11.44-.28-1.15-2.6-1.07-2.9-2.26-.23-.93,1.22-4.18.84-6.85-.46-3.2-4.5-6.22-3.98-8.07.13-.45,1.82-.35,2.02-1.2,1.05-4.34-2.83-5.08-3.36-6.56s.55-2.96.37-4.07c-.13-.84-2.08-.31-2.14-2.13s1.16-3.76,1.14-4.96c-.01-.67-1.63-.61-2.01-1.26-2.79-4.79.74-4.11.99-4.96,1.15-3.9-1.99-3.17-2.79-5.02-1.17-2.72-1.58-8.6,2.8-7.32v-1.48c-1.97-1.88-2.5-4.61-3.98-6.77-1.07-1.56-4-1.32-3.02-4.74l3.99.99c-.08-1.12.25-2.46,0-3.49-.69-2.96-2.24-2.53-5.01-2.5-1-2.69,3.26-3.87,3.05-5.41-.19-1.4-1.27-2.44-1.58-3.61-.76-2.94-1.51-3.34-1.54-3.57-.13-1.22,1.18-2.86.97-3.84-.27-1.29-3-1.24-2.97-2.1.05-2.25,3.19-5.27.59-9.51-3.32-.02-4.56-1.71-7.5-3.43l4.96-2c-5.1-2.24-4.56-2.97-5.94-8.06l-5.58,1.53c-2.14,6.73,2.48,36.52-3.44,39.54-7.69,3.91-5.67-10.19-6.03-14.01-1-10.58-3.07-21.23-3.24-31.73l-5.35-15.55c-.91,1.2-8.62-2.74-8.94-3.16-.63-.82-.35-2.84-1.03-3.97-2.31-3.81-9.33-11.23-10.71-14.26-1.98-4.34.5-8.25-7.74-7.79v-2.99s3.01-.01,3.01-.01c-3.18-5.76,2.76-9.36-5.99-12.48l4.96-2.98-4.83-5.01,1.86-2.98-4.01-1.54c-.86-2.95,3.23-2.02,3.91-4.66s-2.5-3.59-2.68-4.79c-.25-1.66,2.36-2.39,2.69-3.28,1.21-3.22-.59-6.67-.42-7.2,1.44-4.56,6.76-8.39,7.97-13.09.52-2.01-1.16-3.71.41-5.5,1.7-1.94,11.14-6.84,14.14-6.9l.99-1.05-1.02-3.99c2.55-1.54,6.88-.83,9.29-1.53.98-.28.77-2.19,2.56-2.45,1.57-.23,5.29,1.16,6.11.39.28-.26-.39-4.34,4.73-4.69,2.08-.14,4.29,2.85,7.33.74l-.59-3.01c6.59-1.4,2.75-3.87,4.03-5.91,1.07-1.7,5.8-5.56,6.99-8.98.99-2.85-3.26-6.97,5.56-6.04-.74-2.45-1.38-6.04-.03-8.34.7-1.19,2.56-.35,2.9-.71.6-.63-.2-3.75.14-5.25.15-.64,4.68-1.87-.01-6.64,4.2-.25,6.33-12,6.8-15.8.62-5.09-2.35-10.7,1.2-15.19l-4.01-.02.02-3.98h2.27s.73-2,.73-2c-3.99,1.1-3.25-4.22-6.99-4,.2,5.4-2.96,12.63-2.94,17.63.01,2.68,1.85,4.21,2,6.85.7,12.51-11.88,14.14-10.1-1.03,1.04-8.86,1.39-10.38.59-19.95-.46-5.54,1.41-8.54-4-13.55-1.67-1.55-3.52-1.64-4.5-2.5-1.45-1.25-1.65-4.77-4.05-5.94l1.99-1.48c-1.23-.77-5.17-1.64-5.79-2.18-.53-.46-5.99-10.37-6.57-11.96-2.7-7.42-.47-6.8.06-12.48.16-1.67-.96-3.57-.69-5.78.72-5.89,5.81-10.64,5-16.57l4.99,1.99-.99-4.98,3.96-1.49-1.55-4.55c2.02-1.34,7.09-3.93,8.61-5.41,1.77-1.73,3.65-6.71,4.28-7.3,1.08-1,4.23.18,3.74-5.24l6.76-.19,1.44-4.64,2.76-.17-1.01-3.98c6.96.9,3.07-12.26,9.01-11.01l-1.99-3.48c6.77-7.09,15.71-24.43-1-24.49l1,4.98c-3.05,1.21-6.27.09-9.31.39-2.26.22-8.63,2.71-9.16,2.73-2.04.07-3.9-1.12-5.93-1.06-2.2,4.65-6.72,8.55-11.6,4.93l-.02,3.01-8.04-.6-1.51,4.65-4.43-.06c-.76-2.63,8.12-5.3,2.01-5.97.64,3.27-3.11,1.36-3.94,2.09l-.08,2.9c-3.56-2.1-6.97.16-5,3.98-1.61.16-2.96-1.07-4.53-1.08-2.44,0-6.69,2.28-8.25,2.99-5.35,2.44-3.77-.56-4.85-.9-4.59-1.46-2.91,2.49-4.28,3.58-1.45,1.14-12.15-2.21-13.65,5.49l-4.87-2.08c-2.87,5.79-4.12,2.71-6.94,3.23-1.26.23-1.87,2.17-3.24,2.51s-4.61-1.08-6.43-.26l-1.47,4.53-5.35-1.86c-.09,5.32-9.94-.27-11.12.86,1.27,3.63,3.2,4.7-.51,7.98l-1.11-2.01h-2.89c-.65,2.48-.74,3.25-3.49,4.01-.54-.66,3.18-6.8-1.5-4.99-3.33,1.29.28,4.01.27,4.5-.08,3.94-9.24.34-11.32-.35-1.77,2.02-1.18,4.27-4.45,4.84l-.03-2.98-4.52.95c0,3.76-1.6,5.02-5.22,5.84-3.27.74-5.05-2.64-6.32,4.08-4.96-.59-16.38-2.17-14.91,5.09l-6.99-2-1.02,5.99c-2.22-1.13-2.3-3.07-5.25-2.83-3.7.31-2.38,3.22-2.85,3.66-.6.57-13.78,2.59-16.17,3.39-1.05.35-11.5,5.74-13.87,6.9-3.67,1.81-6.69,7.26-11.85,3.86,1.23,4.94-2.54,4.28-6.17,6.12-1.95.99-7.5,3.12-7.85,3.39-.3.23-3.24,5.5-4.01,6.47l-2-3c-7.26,1.65-.85,8.18-5.66,9.85-3.46,1.21-2.89-5.25-7.32-3.85l3,2c-1.19,1.75-.63,4.47-1.51,5.98-1.38,2.36-4.56,1.07-5.53,1.59-2.66,1.41-2.9,7.71-1.97,10.4l-4.9.11-.11,9.89-3.99-.99c.68,5.6-3.24,19.42-1.34,23.77.73,1.67,2.98.63,2.32,2.68-6.07,4.32-.02,10.58,1.02,15.51h-4.01c.04,3.89,2.63,7.6.93,11.2-.45.95-2.19,1.09-2.54,2.72-.56,2.64,1.95,4.17,1.67,6.47-.04.37-3.9.49-1.38,6.39.6,1.4,2.39,1.06,2.32,1.68-.19,1.76-4.98,3.45-2.99,7.51l4.41-.96,1.58,3.95-5.99-.98,1.01,4c6.08,0,5.32-4.31,6.02-4.99.38-.37,5.01,1.67,8.3-.23,18.86-10.9,38.18-23.39,56.61-35.33,31.76-20.57,65.28-45.15,97.03-65.94.79-.51.87-2.1,1.21-2.3.74-.44,2.3,1.08,3.8.43,1.79-.78,2.65-4.01,3.24-4.33,2.65-1.46,5.27,1.28,7.3-5.21l5.49,1.98-1.01-2.98c6.64-3.63,10.97,1.04,18.01,0l-2.99,2.98,8.99-1.98-1.99,3.98,2.89-.89c.6,4.45,4.44,1.35,7.06,3.41,2.01,1.58,1.46,4.38,2.31,5.23,1.24,1.23,5.23.93,5.68,5.82l3.06-.57-.04,3.92-3.94,1.56c1.14,2.84,5.3,4.41,6.25,6.77.78,1.93-.72,4.16-.33,6.09.24,1.18,2.48-.03,2.06,1.62l-2.98,1.52,4.98,4.48-3.98,1.51,3.98,4.5-3.01.51c-.76,2.21,2.55,1.46,2.75,2.9.04.29-.67,5.4-.81,5.85-.26.79-1.5.51-2.02,2.18-1.16,3.72-.36,11.13-3.56,13.63-5.63,4.38-1.93,1.78-4.88,6.9-.88,1.53-2.94,1.66-3.27,2.23-.62,1.08.16,3.29-.25,3.72-.32.32-6.76-.14-5.96,5.05l3,.99c-5.64-1.35-4.41,3.4-5.04,3.98-.3.28-5.98-.77-7.97,1.04l1,4.98c-2.29-1.22-1.39-3.96-4.99-2.99l2,3.98-5.99-.99c1,4.28-1.44,6.35-4.98,7.98l-1.01-1.98c.58,2.47-2.24,1.63-2.78,2.23s-.01,2.31-.32,2.61c-.71.69-3.35-.45-4.72.37-5.65,3.4-11.99,8.94-17.48,12.49-1.58,1.03-7.88,2.3-9.69,3.8-1.59,1.32-1.8,5.31-2.04,5.48-.52.37-2.72-1.47-4.93-.53-2.92,1.23-5.33,5.62-7.13,6.95-1.19.88-3.17.86-4.29,1.71-2.03,1.53-10.01,7.29-10.43,8.59s-.03,4.08-.21,4.27-3.7-.16-5.23.26c-2.44.68-10.18,6.77-11.28,8.69-.53.91.86,2.62.5,3.03l-2.99-1.57c-3.15,3.51-6.34,7.09-9.95,10.14-1.29,1.1-3.44,1.21-3.85,1.69-1.17,1.38,1.64,3.62-3.23,2.17l-.98,6.55-4.69-1.29c-2.26,1.08-2.16,3.42-3.94,5.2-1.94,1.94-4.96,1.23-6.95,3.06-1.4,1.28-1.79,6.49-3.39,7.56-1.73,1.16-5.16-.1-5.94.61-.27.25.12,1.8-.4,2.48-2.66,3.5-8.83,5.86-8.7,11.37l-4.03-.61c-.85,9.38-6.92,7.64-11.9,11.14-1.56,1.1-1.86,2.89-3.15,3.85-1.81,1.34-8.07,2.55-6.38,5.61l3.48-.52c-1.35,1.86-3.96,1.05-5.52,2.49-1.91,1.78,0,4.49-1.98,6l-.51-3.99c-3.43,1.23-3.23,5-2.98,8l-5.93.12c.85,4.05-2.98,2.87-3.88,4.07-.73.98-.93,6.13-1.2,7.8-2.53-.7-5.13-.74-6.97,1.48l1.93,4.9c-2.87,2.47-5.86,1.53-4.96,6.6l-2.98-1c-.19,2.82-1.38,6.99-2.4,9.56-.46,1.15-2.03,1.09-2.42,1.64-.67.95-1.45,21.08-1.09,23.18.4,2.35,2.61,4.55,2.59,5.07-.08,1.73-2.49,8.16,1.36,9.01-3.62,3.93.48,4.99.58,7.01.03.59-1.4,1.19-.99,3.22.91,4.52,3.23,2.04,3.37,2.25.93,1.5-1.04,7.2-2,8.98l3.03.5-.16,3.41-2.75.16c-1.58,4.05,2.28,7.43,2.42,10.83.07,1.72-1.31,3.18-1.43,5.5-.23,4.53,2.28,12.08,2.81,17.19.46,4.53-.15,11.58.68,16.48.26,1.57,2.1,3.13,2.22,4.57.14,1.67-1.6,2.98-1.55,3.84.06,1.06,4.35,3.57,4.55,6.14.15,1.89-2.24,3.42-1.68,5.63.42,1.66,4.87,4.52,4.86,5.2,0,.36-2.29,1.72-2.77,3.23-.59,1.85.37,7.86-.22,10.26h4.02c1.19,5.44-4.55,6.47-2,11.98l2.98-2.99c-1.05,2.2,2.24,5.54,2.01,6.46-.11.45-4.19,2.47-3.99,5.04l2.98-.51c-1.46,3.96,1.37,7.37,1.79,9.69.3,1.63-1.87,3.01-1.6,4.61.2,1.18,2.13,2.44,2.41,3.62s-1.63,2.11-1.43,3.36c.17,1.05,2.39,2.25,1.84,4.16-.43,1.48-3.81.88-2.99,3.02,1.02,2.66,4.71.18,4.98.52l-.13,3.9-2.87.1c1.42,3.55-.25,11.14,1.53,14,2.83,4.56,1.19,2.02,2.67,7.28.48,1.7,2.89,2.26,2.82,4.18-7.89-.33-1.98,6.53,1.98,7.52v1.96s-2.99,2.44-2.99,2.44c.68,5.93,4.42,9.04,6.02,14.05l-3.03.52c.53,1.68,1.78,4,1.76,5.7-.01,1.3-1.39,2.18-1.4,2.78-.02,1.47,4.14,4.7,4.4,6.12.25,1.31-.96,5.13-.76,7.85.23,3.09,1.77,5.91,2.02,9-6.24.8-1.52,3.63-.46,6.46.61,1.62.24,3.34.56,4.98l2.89.08c-.63,2.07-3.36,4.1-3.06,6.42.07.57,1.82.39,2.04,1.26.49,1.92-1.27,4.79,2,4.32l-3.99,3.47,3.98,4.02c-7.4,4.58.41,1.4,1.07,6.01.57,2.02-2.96,1.98-3.03,2.97-.2,2.63,5.75.3,5.98.51-2.25,2.28.36,6.91,0,8.32-.12.48-8.55,6.43,1,3.66-2.56,5.68-4.01,10.45,0,15.98-7.73-1.77-4.81,8.58-6.91,11.41-.71.96-2.52.11-3.13,1.25-.22.4-1.93,8.45-1.95,8.9-.13,2.29,1.62,3.67,1.64,4.93.02,1.47-3.06,5.39-3.16,7.54l-5,.9-1.49,6.05-5.99-1.99c-1.3,1.36,3.65,6.37.48,6.98-2.59.5-1.49-4.02-4.48-2.98.68,3.54-.49,9.28-5.01,9l1.01,2.98-7.79,1.23c-2.91,8.57,1.31,18.48-4.16,26.31h-3.09c-3.1-1.97-4.62-19.13-4.96-23.53h-2.99s.59,4.05.59,4.05c-.79.91-2.92.57-3.68,1.59-1.59,2.13-1.08,34.38-.96,39.88.11,5.13,4.67,21.77-5.22,20.27-7.96-1.2-4.72-17.29-4.69-22.28.09-12.69.41-30.52-3.64-42.44-1.65-4.87-3.67-2.19-6.77-3.21-1.23-.4-1.31-2.24-1.9-2.56-1.81-.98-4.65-.39-6.35-3.23l-3.36,1.94c-.19-1.31-3.72-6.36-4.3-6.72-4.37-2.7-3.9-.42-8.35-6.19-1.4-1.81-3.31-.26-1.82-5.14-.95-1.73-4.98-1.25-5.57-2.64-.9-2.15-.85-11.88-1.99-13.3-5.73,2.85-4.87-4.56-6.27-6.73-.88-1.36-6.66-3.05.27-5.27-3.92-3.16.23-4.82-.07-6.34-.17-.88-2.13-1.79-2.7-3.36-.91-2.5-1.87-11.74-2.14-14.93-.58-6.77.7-8.26,1.46-14.27.24-1.87-.84-3.71-.41-5.31.5-1.86,3.45-2.48,2.86-4.72-5.68.57-3.09-4.13-3.11-7.39-.01-1.47-.87-2.73-.69-4.81.19-2.24,2.5-6.25,2.45-7.28-.08-1.43-3.27-3.3-2.63-5.5,1.6,1.37,4.5-1.68,5-3.48l-3.51,1.46-1.49-4.96,4.99.99-3.97-3.49c1.89-2.86,3.95-5.15,1-8.01l3.99-1.99c.63-2.91-1.59-2.35-1.7-2.68-.25-.71.9-1.84.25-2.83-.48-.73-2.5-.69-2.64-1.56-.26-1.49,1.53-3.3,2.03-5,.63-2.15-1.31-4.18,2.06-4.91.1-1.11-2.22,0-2.88-.61-.52-.47-1.78-13.18-1.05-13.8l3.92-.09c-3.7-1.97-1.87-6.51-2.08-6.83-.33-.5-3.3-.73-3.53-2.6-.36-2.84,1.01-8.54,2.65-11.09l.02-.92c-4.08-4.01-.22-15.89,0-22.03.18-4.84-2.96-9.98-3.03-11.98-.09-2.57,5.12-6.45-1.03-7.51l.1-1.9,1.96-.7c-1.58-4.22,1.4-7.32-3.06-8.88l2.05-2.08c.54-2.46-1.62-3.92-1.68-4.93s1.5-2.51,1.62-4.07c.18-2.49-.86-4.88,0-7.38h-3s3-1.02,3-1.02c-.49-1.16-.96-2.15-1.02-3.47-.79-18.43-1.89-36.62-1.62-54.8.09-5.88,3.04-14.94-.41-19.08,2.53-7.32,2.19-16.7,1.51-24.01-.24-2.64,2.48-4.1-2.46-3.55l-.51,3c-2.2.53-1.01-1.66-2.68-2.33s-4.22-.98-6.07-.64-2.57,5.44-5.26,5.94c-2.38.44-1.3-1.48-1.49-2.99-11.49.45-10.54,2.33-11.04,12.45s1.37,20.61,1.02,30.99c-.7,4.16-6.53,5.17-8.2,1.26-5.13-13.45-1.76-28.54-3.77-42.69l-10.9-3.1-.11-3.89-4.98,1.99c-1.49-7.87-3.94-4.48-7.37-4.91-1.44-.18-.47-5.13-5.64-1.08l-.1-3.95-2.91-.05v-2.99s2.99-.5,2.99-.5l-4.01-1.51.61-4.03c-3.99-.57-10.82-4.25-5.81-7.12l.15-1.24c-1.47-.75-3.89-5.96-4.21-6.25-1.91-1.73-6.85-1.2-7.7-4.83l4.98-1.5c.94-2.35-1.66-5.08-1.65-6.49.01-1.06,1.44-2.19,1.42-3.85-.03-2.42-2.98-2.62-3.37-4.56-.55-2.74,1.65-4.59,1.55-6.62-.09-1.77-2.35-2.48-1.96-4.44,6.76-.1,3.85-3.98,4.5-6.49.44-1.74,2-3.03,2.2-5.14s-2.21-5.23,1.3-6.37l.02,4,2.95-1.07-.96-5.92,4.99-.02-3-5.98c4.2-.61,7.67-5.55,11.98-7.5l-1.99-4.5c4.25,1.21,3.72-1.54,5.04-2.49.89-.64,2.31.36,3.51-.41,1.97-1.27,4.25-6.33,7.51-7.58,6.05-2.32,9-3.3,14.87-7.07,4.06-2.6,17.45-10.54,20.76-13.67,1.81-1.71.11-4.26,5.88-4.74l-.58-3.02c4.62,1.58,9.02-5.35,7.48-10l.99-.87c1.3,2.06,5.09-.56,5.26-1.3.18-.8-.86-1.97-.59-3.11.8-3.45,4.51-10.56,5.42-15.64,1.1-6.2,3.82-35.64,2.27-40.4-.41-1.26-2.19-1.39-2.87-2.35-2.39-3.36,1.24-3.91,1.87-5.99.71-2.34-.51-4.1-.39-5.83.17-2.45,3.86-4.04-1.24-5.6l-.24-2.31,3.11-3.03c0-1.82-2.36-2.54-2.63-3.98-.88-4.65,2.49-10.98,1.63-13.91-.12-.42-5.9-2.03-6.04-5.11l4.97-1.99c-3.52-2.63-4.5,1.45-6.98-4.01l3.98-4.48-3.85-.14c-1.56-2.67-.89-3.64.85-5.85l-3.99-1.03c-.06-2.87,3.24-1.81,2-5.98-4.74,1.22-4.25-2.72-7.51-4.85l-2.49,1.85c.53-2.09,1.05-3.14-1.01-4.52l-2.98,1.51c-.33-3.64-6-4.42-8.11-6.4-3.6-3.39-2.94-5.21-8.82-9.23-2.5-1.71-1.06-3.73-7.09-1.35-.62-3.11.93-3.17,2.99-4.49-4.1-1.36-2.98-6.42-7-5.5l2-3.99-3.02-.52c2.5-4.42-.59-3.08-1.41-4.51-1.81-3.19-2.64-9.16-7.57-9.98l1.99-4.97c-7.18,2.89-4.06-4.09-8-7.51l1.96-1.91-1.96-3.06c2.18-.12,4.36,1.6,6.01-1.01l-2.98-1.98,3.96-4.01-3.05-2.11,1.24-3.24,3.83-.16-4.01-2,2.98-6.49-3.97-.49v-1.97c2.78-2.91,8.58-2.57,8-7.03l4.99-.49-4.99-3.49,5.99.98-4.99-5.98c7.88,1.86,5-2.93,8.42-5.08,1.46-.92,2.9-1.03,4.57-.93-.65-3.02-2.72-3.54-.98-6.99l2.98,3.99-.99-4.98,4.58-.94.43-5.07c2.61.08,3.48.69,5.05,2.34,2.06,2.18,1.45-4.03,1.56-4.37.43-1.38,2.44-3.22,3.39-4.47l-2.03-.98.03-2.5c4.26.84,5.59-6.07,3.91-9.36,6.32-2.89.69-4.7,1.24-7.87s5.38-3.73,3.85-7.76l3.99,1-.69-3c-2.71-.16-3.77-1.13-3.29-3.98l4.99.99-2.99-3.01c4.34-2.74,2.29-3.63,3.02-7.26.48-2.42,8.09-4.7,9.98-6.21l-3-.5v-2.99s4,0,4,0c-1.25-4.52,3.48-3.36,1-6.98h5.01c-1.04-6.06,5.14-10.77,11-8.01l-1.02-1.97,3.62-.98-.6-3.03,2.49,1.99,1.55-3.99h6.96c-2.45-2.79.87-8.47,3.98-6.56,2.35,1.45,2.59,8.25,8.01,6.54l-3.99-6.98,8.43,3.95,2.55-3.95c-.43,5.61,4.23,6.47,8.96,6.95.1-2.87.77-4.53,4.04-3.95.13,3.1-1.81,5.3.56,7.97,1.12,1.27,3.2.35,2.46,3.02l-3,.99c6.08.43,6.7-2.85,2-5.97l8,2-1.53,1.99,1.01,1.97,4.52-.96-3,2.01c3.41,8.09,3.17,8.22,12.01,5.98l-.88,2.41,2.87,2.57-2.99,2h5.99c-.99,4.57,1.4,3.75,3.59,5.93,1.18,1.18,1.6,5.02,3.43,2.37l.97-2.29.02,7.28,3.48,3.69,3.01-3,2.5.03-1,2.98c3.27,1.2,3.01-2.84,5.49-2.62,1.49.13,2.64,1.77,4.96,1.62,3.89-.25,16-6.21,20.31-7.72,11.47-4.03,22.59-7.61,33.95-12.04,2.85-1.11,7.48,1.42,5.29-4.2,4.67,1.23,8.4-.41,13.01-1.01l-1.01-2.98c3.22-.74.98,3.11,4.33,1.83,1.15-.44,1.8-1.91,2.71-2.29,3.32-1.38,7.14.19,6.97-5.55,4.2,1.53,17.76,2.92,14.99-3.98,1.96.67,4.23-.67,4.07,1.88l5.43-3.87,1.52,2.98c2.41-1.61,2.73-3.4,5.97-1.99v-3.01c.3-.33,7.94,3.41,4.99-2.99,4.26.78,7.23-3.58,10.69-4.63,1.44-.43,3.7.26,5.52-.43,1.01-.38,3.57-4.08,6.47-4.83l4.32,3.89c.18-2.73-2.4-5.07.54-7l4.89,2.09,2.08-3.06,2,2.98c2.32-5.87,7.49-7.61,13.5-7-1.66-3.73,2.66-3.73,1,0l3.47.06c.32-2.14,1.58-2.65,2.41-3.96.92-1.47-1.43-2.71,3.18-1.5l.96-3.59,3.99,2.51-1.99.5c-1.03,3.35,3.59,1.92,4.74.66.29-.32,2.54-5.58,3.74-5.6,1-.02,1.43,2.89,7.41.34,2.81-1.2,7.48-3.27,7.12-6.39,3.12-.28,3.11,2.65,3,4.99,1.54.31.97-1.7,1.97-2.39.25-.17,5.27-2.54,5.58-2.61,4.52-.98,2.5,3.14,5.81,1.03,3.09-3.72-5.29-3.71-.38-6.03l1,1.99,2-2.99,2.5,2.99,1.51-5.98,4.48,3.98,4.36-2.79c3.72,6.5,4.21-3,7.82-3.07,2.46-.05,2.02,2.62,2.37,2.85,1.01.68,2.7-1.58,3.48-1.65,1.26-.11,2.7,2.22,4.48,1.68v-3.01c2.36,2.43,3.68.93,6.34,1.07,4.75.25,3.35,2.53,7.16-3.04,3.43,2.42-.75,3.38-.49,5.97,2.25-1.93,4.86-.19,6.53-.41,2.67-.36,3.32-6.46,6.95-5.58,2.1,2.98,2.41,6.58,1.52,9.98l5.46-3.97c4.86.6,3.84,6.44,9.52,2.97.19,2.19.17,6.36,1.05,8.2,1.2,2.51,6.69,1.61,4.96,6.79l11-1.99-5,7.97,6.98-2.98c4,4.64-3.22,6.69.54,10.98,2,.71,1.56-2.04,2.92-3.06,1.78-1.34,4.42.09,3.58-3.93l1.97,1.5-2.03,3.97c3,.86,2.07,2.74,2.05,5.52-5.8-4.96-7.76-4.48-9.95,2.55-.82,2.62,6.1,1.07,8.25,1.66,5.3,1.45-.24,9.61-1.3.79l-7.01,3.5.6,2.49h4.41s-3.99,5.51-3.99,5.51l3.01.5-.02,4.98-3.99-3.98-1.02,4.98c6.32.01,3.52,3.3,4.26,5.24.86,2.26,3.39,3.83,2.75,6.75l-2.97-.7-1.03-5.29-6.99,3.01c2.66,2.92,1.9,3.88,0,6.97,2.73-.44,2.89.33,3.98,2.51-1.88,2.51-5.32.49-7.98,1.5l2.99,4.98-3.41-1.01c-1.81,2.77-3.72,2.87-4.39,6.51-.77,4.23,3.81,8.44-3.04,7.63-1.32,1.92-2.19,8.3,1.33,7.85l-.47-4.49c5.91-4.64,5.29,5.67,7.23,7.25.68.56,13.99,5,16.56,5.94,1.6.59,3.77-.06,5.22.78s1.51,4.13,2.98,5.01c.37.22,7.16,2.68,7.95,2.91,1.21.35,2.56-.56,3.47-.34,2.71.66,4.98,3.15,8.51,1.82l.07-2.89c3.81,1.85,4.66.02,7.99-.99l-1,2.98c4.14,1.45,3.53-3.75,4.56-4.05l3.44.07-1.01,1.98,3,.02.95-4.54c2.43-.15,6.22.13,8.39-.66s3.88-7.28,9.65-1.8l.1-3.91c4.12.1,7.26-3.89,11.25-3.09.72.14.54,1.67,1.15,1.78,2.04.38,12.47-.22,13.57-1.28,1.32-1.27,1.06-7.2,3.35-1.58,4.17-2.75,9.44,2.94,10.6-3.92,3.18,3.11,7.99,2.6,9-1.99l1.89.11c0,3.61,6.17,2.25,4.09-1.11,8.65.41,15.79.79,24.35-.37,2.75-.37,4.92-.4,7.1-.67,1.49-.19,2.77-1.59,5.03-1.99,3.18-.57-1.13,2.43,2.02,2.04,2.6-.31,5.02-1.88,7.06-1.97,1.7-.07,3.33,1,4.94.95,3.4-.11,9.6-3.67,8.51,2,4.48-3.51,8.64-.81,13.39.04l1.13-2.12c1.02.09,1.9.55,2.73,1.1,4.9,3.31,12.55,3.52,18.99,6.02,1.23.48.86,4.24,5.73-.06-1.36,4.14,1.75,6.48,5.61,7,1.54.21,3.91-1.07,4.46-.59.86.75.59,2.69,1.19,3.32.79.83,4.4.85,4.74,1.32.27.37-2.42,6.66,5,3.94-3.36,3.5-.35,4,1.64,6.4.45.54.15,1.99.59,2.36.79.65,2.46.02,2.77.24.13.09-1.12,1.89-.58,2.98.64,1.29,2.83,1.51,3.67,2.73.72,1.05,1.93,8.57,1.91,10.26l2.98-1v4c-2.49-.86-3.39-.71-4.99,1.5l4.99,1.5c.38,1.6-1.41.43-1.95,1.72-2.05,4.92.99,6.33,1.02,8.7,0,.6-2.53,1.01-3.35,2.76s-.42,5.16-.89,5.68c-.3.33-1.97-.08-2.49.38-1.28,1.15-1.89,3.97-3.31,5.26-7.7,7-5.88,5.51-10.62,15.41-1.02,2.13-5.96,3.38-7.31,5.65-3.34,5.62,2.3,26.43-10.43,22.46-.57-.38-2.67-5.27-2.67-5.58v-14.99ZM976.76,212.97c-3.14,1.27-3.51-2.03-5.5-2.56-.88-.23-16.88-2.27-17.79-2.27-4.42.02-8.75,3.35-11.2,4-1.45.38-4.61-1.42-5.3-.86-2.17,1.77,4.31,2.23,1.01,3.51-4.38,1.69-11.99,1.79-16.23,3.56-.75.32-11.05,9.69-11.68,10.75-2.41,4.03-5.67,14.81-8.67,18.09-1.1,1.2-4.19,1.43-4.45,2.58s2.23,2.54,2.04,4.89c-.15,1.82-2.72,3.99-2.8,6.26-.06,1.84,1.88,3.27,1.63,4.68-.15.82-2.55,2.76-3.35,4.64-.59,1.37-2.28,11.06-2.32,12.68-.05,2.24,3.25,3.05,2.82,4.8-5.93,2.63-.89,3.4-1.21,5.83-.08.61-1.18,1.32-1.28,2.17-.74,6.05-1.17,10.55-1.96,16.03-.6,4.16-3.51,12.35-3.52,16.08,0,2.38,1.97,3.52,2.09,5.88.09,1.79-1.64,1.35-1.88,1.96-.64,1.66.98,5.47.81,6.88-.04.32-.9,1.68-1.5,5.16-.58,3.38-3.43,11.48-3.57,14.04-.12,2.22,1.74,3.21,2.07,4.96.35,1.87-1.85.79-2.12,2.87-.64,4.91,1.84,8.83,1.85,10.09,0,.56-5.29,6.3-2.61,10.32,3.34.13,5.37,4.02,8.58,2.47,2.88-3.17,7.16-4.74,10.49-7.31,6.09-4.69,14.22-13.33,20.12-17.6,1.35-.98,3.43-.7,4.68-1.9.97-.93.64-2.87,1.61-3.58,1.85-1.35,5.74-3.47,7.32-4.59,2.95-2.11,5.92-4.98,8.53-7.27,14.13-12.36,25.28-24.48,36.54-39.48,4.34-5.78,4.61-7.38,7.95-12.78.59-.96,2.47-1.08,2.87-2.36.94-2.97,2.22-7.9,2.72-10.47.56-2.89,1.71-4.49.44-7.88h3.01c-2.61-3.72.93-6.05,1.07-9.5.1-2.38-1.29-4.67-1.17-6.99.15-2.7,3.06-5.82,2.99-8.91l-3.9-1.58c-.78-2.07,1.67-3.57,1.83-4.68.07-.48-1.69-7.78-1.74-8.75s.69-2,.93-2.96l-3.04-2.11,2.02-3.95c-4.6-.93-5.6-6.63-8-9-.88-.86-2.33-.87-3.3-1.53-.68-.46-.7-1.74-.89-1.83-.82-.37-4.83,1.51-6.81-.17-.66-1.59,5.43-.5,2.99-2.97-.16-.16-2.08-.78-2.92-.29-.19.11-.07.87-.29.96ZM1212.97,328.2l-5.99,3.01c-.64.64,3.98,1.92,1.98,3.98s-3.72-2.84-4.98-2.99c-1.71,3.74,2.95,4.97,3.06,5.55.55,3.02-6.05,5.43-1.06,10.42h-3.02c2.12,3.01-.98,4.31-1.46,6.07-.36,1.32.29,2.44-.11,3.82-1.81,6.23-5.06,8.75-2.41,16.59l-3-.49c1.29,2.32,3.92,1.42,3,4.98h-5c-.95.88,2.93,8.57,2.63,10.54-.19,1.26-2.69,2.06-2.66,3.94.02,1.39,2.01,2.57,2.04,4.01s-1.9,2.93-2.53,4.49,1.53,3.79-2.47,4.02l3.99,4.97-3.02.52c2.54,8.34.44,11.38-3.97,17.99l2.97.51c.22,3.43-.95,6.96-4.03,8.61l1.12,7.75c-8.9,3.61-1.01,3.69-1.08,4.09-1.58,2.75-2.75,5.92-2.91,9.11-.23,4.68-.58,6.06-1.03,9.94-.22,1.89.74,5.81.96,7.93l-2-.49c-.39,2.04,1.82,2.59,1.99,4.53.24,2.61-1.21,7.52.06,10.94-.07.37-5.4.67-3.05,3.52,1.79,2.16,1.78-3.51,3.99-1.98-3.34,3.9-.4,6.22-.28,8.6.09,1.8-.96,3.53-.71,5.78.37,3.34,2.84,9.12,6.99,7.58-3.7-6.09,6.39-6.61,9.55-8.93,5.1-3.74,8.85-9.77,12.02-14.97.61-1,2.52-1.32,2.93-2.02.87-1.47-2.94-7.07,5.5-4.05l-.58-5.04c3.61-1.17,3.86-.7,3.73-4.79l3.84-1.65c-2.76-1.86-1.24-3.79-.97-6.5l3.99,1-2.05-7.43,2.1-1.07c-4.27-7.06-.01-4.78.83-7.07,1.77-4.8-3.36-2.08-3.88-6.39,7.82.65,4.34-.93,4.12-5.62-.16-3.26.28-8.71-.12-11.77-.31-2.33-2.69-4.4-2.67-5.08s1.85-1.89,1.74-3.95c-.03-.53-2.29-.58-2.67-2.49-.47-2.35,1.27-3.3,1.33-5.35.08-3.12-2.83-7.78-2.77-9.19.02-.62,3.16-.12,2.05-2.49-6.32-1.92-2.45-2.92-2.16-4.69.2-1.23-3.22-4.17-.83-7.3l-3.99-1.51c1.01-2.39,5.36-.19,4.98-3s-1.96-2.62-3.95-1.55l-1.05-3.94,4.99-.5c-3.58-2.82-6.53-1.9-4.98-7.82.21-.79,1.97-.65,2-1.25.06-1.35-1.6-3.89-.97-5.81l-3.04-.62.69-1.98c3.65-.26,4.72-2.63,4.3-6.01l-3.98.99,3.06-6.5-3.14-3.14,2.08-5.82-1.99-1.52-3.01,2.99c.68-5.09-4.22-5.46-5.03-6.7-1.26-1.92-.55-5.19.02-7.28Z"/>
    <path d="M859.16,873.54c-3.56-2.03-3.77-15.02,4.18-12.72,5.4,3.29,1.46,15.92-4.18,12.72Z"/>
    <path d="M433.22,628.19c4.9-4.99,12.38,5.15,6.17,9.66-5.73,4.15-9.97-5.79-6.17-9.66Z"/>
    <path d="M765.73,320.95c-6.17,6.27-10.73-11.53-1.47-8.53,3.36,1.08,3.54,6.42,1.47,8.53Z"/>
    <path d="M63.72,702.14c2.86,2.92-.02,8.21-3.74,6.28-4.84-2.5-.16-10.27,3.74-6.28Z"/>
  </g>
  <g>
    <path d="M708.84,943.95h-11.25v-51h19.12c8.25,0,15.6,6.68,15.6,16.35,0,8.62-5.17,14.32-11.62,15.9l14.62,18.75h-14.25l-12.15-18.22h-.07v18.22ZM708.84,901.8v15.07h6c3.3,0,6.75-2.7,6.75-7.57s-3.45-7.5-6.75-7.5h-6Z"/>
    <path d="M803.72,943.95h-29.55v-51h29.55v10.2h-18.3v10.12h17.55v10.2h-17.55v10.28h18.3v10.2Z"/>
    <path d="M859.22,943.95h-11.25v-51h19.12c8.25,0,15.6,6.68,15.6,16.35,0,10.35-7.35,16.42-15.6,16.42h-7.88v18.22ZM859.22,901.8v15.07h6c3.3,0,6.75-2.7,6.75-7.57s-3.45-7.5-6.75-7.5h-6Z"/>
    <path d="M952.44,930c0-9.9-29.47-3.53-29.47-22.35,0-10.5,9.75-15.45,19.05-15.45,10.5,0,19.95,4.65,20.32,16.28h-10.88c-.6-5.33-3.67-7.05-9.3-7.05-3.15,0-7.57,1.5-7.57,5.33,0,9.07,29.47,2.55,29.47,21.97,0,12-10.72,16.43-21.15,16.43-11.25,0-21.52-5.55-21.6-18h11.4c.3,6.07,5.1,8.85,10.65,8.85,3.53,0,9.08-1.43,9.08-6Z"/>
  </g>
</svg>