<svg width="38" height="40" viewBox="0 0 38 40" fill="none" xmlns="http://www.w3.org/2000/svg">
<path fill-rule="evenodd" clip-rule="evenodd" d="M13.8208 14.5482C15.1944 13.1023 17.0574 12.29 19 12.29C20.9426 12.29 22.8056 13.1023 24.1792 14.5482C25.5528 15.9941 26.3245 17.9552 26.3245 20C26.3245 22.0448 25.5528 24.0059 24.1792 25.4518C22.8056 26.8977 20.9426 27.71 19 27.71C17.0574 27.71 15.1944 26.8977 13.8208 25.4518C12.4472 24.0059 11.6755 22.0448 11.6755 20C11.6755 17.9552 12.4472 15.9941 13.8208 14.5482ZM17.1804 24.624C17.7573 24.8755 18.3756 25.005 19 25.005C20.261 25.005 21.4704 24.4777 22.3621 23.5391C23.2538 22.6005 23.7547 21.3274 23.7547 20C23.7547 18.6726 23.2538 17.3996 22.3621 16.4609C21.4704 15.5223 20.261 14.995 19 14.995C18.3756 14.995 17.7573 15.1245 17.1804 15.376C16.6036 15.6275 16.0794 15.9962 15.6379 16.4609C15.1964 16.9257 14.8461 17.4774 14.6072 18.0847C14.3682 18.6919 14.2452 19.3427 14.2452 20C14.2452 20.6573 14.3682 21.3081 14.6072 21.9153C14.8461 22.5226 15.1964 23.0743 15.6379 23.5391C16.0794 24.0038 16.6036 24.3725 17.1804 24.624Z" fill="white"/>
<path d="M27.9482 13.4387C28.2729 13.0969 28.4553 12.6334 28.4553 12.15C28.4553 11.6666 28.2729 11.2031 27.9482 10.8613C27.6235 10.5195 27.1832 10.3275 26.724 10.3275C26.2648 10.3275 25.8244 10.5195 25.4997 10.8613C25.175 11.2031 24.9926 11.6666 24.9926 12.15C24.9926 12.6334 25.175 13.0969 25.4997 13.4387C25.8244 13.7805 26.2648 13.9725 26.724 13.9725C27.1832 13.9725 27.6235 13.7805 27.9482 13.4387Z" fill="white"/>
<path fill-rule="evenodd" clip-rule="evenodd" d="M13.1252 5.09C14.6452 5.017 15.1297 5 19 5C22.8713 5 23.3548 5.018 24.8739 5.09C26.391 5.163 27.4284 5.418 28.3347 5.787C29.2852 6.16386 30.1462 6.75422 30.8579 7.517C31.5828 8.26632 32.1436 9.17306 32.5014 10.174C32.8538 11.128 33.0952 12.219 33.1645 13.816C33.2339 15.416 33.25 15.926 33.25 20C33.25 24.074 33.2339 24.584 33.1645 26.184C33.0952 27.781 32.8538 28.872 32.5023 29.826C32.1443 30.8265 31.5835 31.7329 30.8589 32.482C30.1464 33.246 29.2847 33.836 28.3347 34.212C27.4284 34.583 26.392 34.837 24.8748 34.91C23.3548 34.983 22.8703 35 19 35C15.1297 35 14.6452 34.983 13.1252 34.91C11.6081 34.837 10.5716 34.583 9.6653 34.213C8.71483 33.8361 7.8538 33.2458 7.1421 32.483C6.4163 31.733 5.8558 30.826 5.4986 29.826C5.14615 28.872 4.90485 27.781 4.8355 26.184C4.76615 24.584 4.75 24.075 4.75 20C4.75 15.925 4.7671 15.416 4.8355 13.817C4.90485 12.22 5.1471 11.128 5.49765 10.174C5.85567 9.17349 6.41651 8.26713 7.14115 7.518C7.85365 6.754 8.7153 6.164 9.6653 5.788C10.5716 5.417 11.6081 5.163 13.1252 5.09ZM24.7589 7.79C23.256 7.718 22.8048 7.703 19 7.703C15.1953 7.703 14.744 7.718 13.2411 7.79C11.8522 7.857 11.0979 8.101 10.5954 8.307C9.97634 8.54698 9.41634 8.93004 8.9566 9.428C8.4588 9.953 8.1491 10.453 7.89165 11.153C7.695 11.682 7.46415 12.476 7.4005 13.938C7.3321 15.52 7.31785 15.995 7.31785 20C7.31785 24.005 7.3321 24.48 7.4005 26.062C7.46415 27.524 7.69595 28.318 7.89165 28.847C8.11977 29.4985 8.48367 30.088 8.9566 30.572C9.41641 31.0699 9.97638 31.4529 10.5954 31.693C11.0979 31.9 11.8522 32.143 13.2411 32.21C14.744 32.282 15.1943 32.297 19 32.297C22.8057 32.297 23.256 32.282 24.7589 32.21C26.1478 32.143 26.9021 31.899 27.4047 31.693C28.0237 31.4531 28.5837 31.07 29.0434 30.572C29.5164 30.088 29.8803 29.4985 30.1084 28.847C30.305 28.318 30.5359 27.524 30.5995 26.062C30.6679 24.48 30.6822 24.005 30.6822 20C30.6822 15.995 30.6679 15.52 30.5995 13.938C30.5359 12.476 30.3041 11.682 30.1084 11.153C29.8509 10.453 29.5422 9.953 29.0434 9.428C28.5447 8.904 28.0697 8.578 27.4047 8.307C26.9021 8.1 26.1478 7.857 24.7589 7.79Z" fill="white"/>
</svg>
